# xmcd
#
# Track frame offsets:
#	150
#	15883
#	34945
#	51319
#	71027
#	90366
#	105422
#	122649
#	135732
#	154884
#
# Disc length: 2275 seconds
#
# Revision: 0
# Processed by: cddbd v1.5.2PL0 Copyright (c) Steve Scherf et al.
# Submitted via: EasyCDDAExtractor 12.0.1.1
#
DISCID=7a08e10a
DTITLE=Heidi Newfield - What Am I Waiting For
DYEAR=2008
DGENRE=Country
TTITLE0=Can't Let Go
TTITLE1=When Tears Fall Down
TTITLE2=Johnny and June
TTITLE3=What Am I Waiting For
TTITLE4=Love Her and Lose Me
TTITLE5=Cry Cry (Til the Sun Shines)
TTITLE6=Wreck You
TTITLE7=Nothin' Burns Like a Memory
TTITLE8=All I Wanna Do
TTITLE9=Knocked Up
EXTD=
EXTT0=
EXTT1=
EXTT2=
EXTT3=
EXTT4=
EXTT5=
EXTT6=
EXTT7=
EXTT8=
EXTT9=
PLAYORDER=
